<svg xmlns="http://www.w3.org/2000/svg" width="13.97" height="15" viewBox="0 0 13.97 15">
  <metadata><?xpacket begin="﻿" id="W5M0MpCehiHzreSzNTczkc9d"?>
<x:xmpmeta xmlns:x="adobe:ns:meta/" x:xmptk="Adobe XMP Core 5.6-c142 79.160924, 2017/07/13-01:06:39        ">
   <rdf:RDF xmlns:rdf="http://www.w3.org/1999/02/22-rdf-syntax-ns#">
      <rdf:Description rdf:about=""/>
   </rdf:RDF>
</x:xmpmeta>
                                                                                                    
                                                                                                    
                                                                                                    
                                                                                                    
                                                                                                    
                                                                                                    
                                                                                                    
                                                                                                    
                                                                                                    
                                                                                                    
                                                                                                    
                                                                                                    
                                                                                                    
                                                                                                    
                                                                                                    
                                                                                                    
                                                                                                    
                                                                                                    
                                                                                                    
                                                                                                    
                           
<?xpacket end="w"?></metadata>
<defs>
    <style>
      .cls-1 {
        fill: #298fd3;
        fill-rule: evenodd;
      }
    </style>
  </defs>
  <path id="Forma_1" data-name="Forma 1" class="cls-1" d="M1276.74,15.69a0.8,0.8,0,0,0-.64-0.294l-0.03,0a7.392,7.392,0,0,0,.37-2.272,6.732,6.732,0,1,0-13.44,0,6.935,6.935,0,0,0,6.72,7.129,6.35,6.35,0,0,0,3.01-.762,0.782,0.782,0,0,1,.05.105l0.05,0.925a0.483,0.483,0,0,0,.47.476h2.55a0.49,0.49,0,0,0,.48-0.5V19.439c0.1-.372.56-2.08,0.64-2.781A1.286,1.286,0,0,0,1276.74,15.69Zm-7.12-7.157a0.923,0.923,0,0,1,.92.961,0.9,0.9,0,0,1-.93.936,0.884,0.884,0,0,1-.92-0.936A0.907,0.907,0,0,1,1269.62,8.533Zm1.54,9.188h-2.88V16.747l0.4-.038a0.341,0.341,0,0,0,.35-0.41V12.735c0-.281-0.07-0.371-0.3-0.371l-0.43-.027V11.275h2.17v5.383l0.69,0.039v1.025h0Zm5.34-1.124c-0.09.741-.65,2.77-0.65,2.77v1.127h-2.55l-0.05-1.017a13.371,13.371,0,0,1-.86-2.629,0.664,0.664,0,0,1,.59-0.64,26.961,26.961,0,0,1,.16-3.564,0.383,0.383,0,0,1,.38-0.148,0.414,0.414,0,0,1,.39.148,22,22,0,0,1,.23,3.258,0.417,0.417,0,0,1,.32-0.137,0.928,0.928,0,0,1,.49.189,0.441,0.441,0,0,1,.32-0.154,0.581,0.581,0,0,1,.41.249,2.067,2.067,0,0,1,.24-0.126,0.751,0.751,0,0,1,.18-0.023C1276.53,15.9,1276.52,16.408,1276.5,16.6Z" transform="translate(-1263 -6)"/>
</svg>
